# xmcd
#
# Track frame offsets: 
#        150
#        5075
#        34590
#        57977
#        88040
#        108907
#        122650
#        142555
#        164297
#        193077
#        215717
#        239175
#
# Disc length: 3269 seconds
#
# Revision: 0
# Processed by: cddbd v1.5.2PL0 Copyright (c) Steve Scherf et al.
# Submitted via: ExactAudioCopy v1.0b3
#
DISCID=a60cc30c
DTITLE=Duy Khanh - Me Trong Long Nguoi Di
DYEAR=1991
DGENRE=
TTITLE0=Hoang Hoa - Loi gioi thieu
TTITLE1=Bong hong cai ao
TTITLE2=Huong Lan - On nghia sinh thanh
TTITLE3=Long Me Viet Nam
TTITLE4=Thien Trang - Long Me
TTITLE5=Huong Lan - Ba Me que
TTITLE6=Thoa niem thuong nho
TTITLE7=Ha Lan - Ca dao Me
TTITLE8=Ba Me Gio Linh
TTITLE9=Giao Linh - Me toi
TTITLE10=Que Me
TTITLE11=Hoang Hoa - Loi cam ta
EXTD=
EXTT0=
EXTT1=
EXTT2=
EXTT3=
EXTT4=
EXTT5=
EXTT6=
EXTT7=
EXTT8=
EXTT9=
EXTT10=
EXTT11=
PLAYORDER=
